HIERARCHY
ROOT Hips
{
	OFFSET 0.00 0.00 0.00
	CHANNELS 6 Xposition Yposition Zposition Xrotation Yrotation Zrotation
	JOINT Spine
	{
		OFFSET 0.00000 2.10617 3.15926
		CHANNELS 3 Xrotation Yrotation Zrotation
		JOINT Spine1
		{
			OFFSET 0.00000 0.73147 4.14835
			CHANNELS 3 Xrotation Yrotation Zrotation
			JOINT Spine2
			{
				OFFSET 0.00000 0.36713 4.19631
				CHANNELS 3 Xrotation Yrotation Zrotation
				JOINT Spine3
				{
					OFFSET 0.00000 0.00000 4.21234
					CHANNELS 3 Xrotation Yrotation Zrotation
					JOINT Neck
					{
						OFFSET 0.00000 -1.57962 11.05740
						CHANNELS 3 Xrotation Yrotation Zrotation
						JOINT Head
						{
							OFFSET 0.00000 -1.00576 5.70398
							CHANNELS 3 Xrotation Yrotation Zrotation
							End Site
							{
								OFFSET 0.00000 0.00001 6.81873
							}
						}
					}
					JOINT RightShoulder
					{
						OFFSET -1.28113 -2.13521 6.91810
						CHANNELS 3 Xrotation Yrotation Zrotation
						JOINT RightArm
						{
							OFFSET -6.36294 0.00000 0.00000
							CHANNELS 3 Xrotation Yrotation Zrotation
							JOINT RightForeArm
							{
								OFFSET -10.12221 0.00000 0.00000
								CHANNELS 3 Xrotation Yrotation Zrotation
								JOINT RightHand
								{
									OFFSET -10.76713 0.00000 0.00000
									CHANNELS 3 Xrotation Yrotation Zrotation
									JOINT RightHandEnd
									{
										OFFSET -2.78915 0.00000 0.00000
										CHANNELS 3 Xrotation Yrotation Zrotation
										End Site
										{
											OFFSET -2.78915 0.00000 0.00000
										}
									}
									JOINT RightHandThumb1
									{
										OFFSET -1.11566 -1.85944 -0.74377
										CHANNELS 3 Yrotation Xrotation Zrotation
										End Site
										{
											OFFSET -2.69412 -0.72189 0.00000
										}
									}
								}
							}
						}
					}
					JOINT LeftShoulder
					{
						OFFSET 1.28113 -2.13521 6.91810
						CHANNELS 3 Xrotation Yrotation Zrotation
						JOINT LeftArm
						{
							OFFSET 6.36294 0.00000 0.00000
							CHANNELS 3 Xrotation Yrotation Zrotation
							JOINT LeftForeArm
							{
								OFFSET 10.12221 0.00000 0.00000
								CHANNELS 3 Xrotation Yrotation Zrotation
								JOINT LeftHand
								{
									OFFSET 10.76713 0.00000 0.00000
									CHANNELS 3 Xrotation Yrotation Zrotation
									JOINT LeftHandEnd
									{
										OFFSET 2.78915 0.00000 0.00000
										CHANNELS 3 Xrotation Yrotation Zrotation
										End Site
										{
											OFFSET 2.78915 0.00000 0.00000
										}
									}
									JOINT LeftHandThumb1
									{
										OFFSET 1.11566 -1.85944 -0.74377
										CHANNELS 3 Yrotation Xrotation Zrotation
										End Site
										{
											OFFSET 2.69412 -0.72189 0.00000
										}
									}
								}
							}
						}
					}
				}
			}
		}
	}
	JOINT RightUpLeg
	{
		OFFSET -3.80068 0.00000 -1.11031
		CHANNELS 3 Xrotation Yrotation Zrotation
		JOINT RightLeg
		{
			OFFSET 0.00001 0.00000 -17.00167
			CHANNELS 3 Xrotation Yrotation Zrotation
			JOINT RightFoot
			{
				OFFSET 0.00001 0.00000 -17.96841
				CHANNELS 3 Xrotation Yrotation Zrotation
				JOINT RightToeBase
				{
					OFFSET 0.00000 -5.07501 -1.84715
					CHANNELS 3 Xrotation Yrotation Zrotation
					End Site
					{
						OFFSET 0.00000 -3.07471 -0.00000
					}
				}
			}
		}
	}
	JOINT LeftUpLeg
	{
		OFFSET 3.80068 0.00000 -1.11031
		CHANNELS 3 Xrotation Yrotation Zrotation
		JOINT LeftLeg
		{
			OFFSET 0.00001 0.00000 -17.00167
			CHANNELS 3 Xrotation Yrotation Zrotation
			JOINT LeftFoot
			{
				OFFSET 0.00001 0.00000 -17.96841
				CHANNELS 3 Xrotation Yrotation Zrotation
				JOINT LeftToeBase
				{
					OFFSET 0.00000 -5.07501 -1.84715
					CHANNELS 3 Xrotation Yrotation Zrotation
					End Site
					{
						OFFSET 0.00000 -3.07471 -0.00000
					}
				}
			}
		}
	}
}
MOTION
Frames: 9
Frame Time: 0.008342
 11.7916 59.4169 37.9309 0.1564 0.6379 6.8258 -0.4036 0.9332 0.1008 -0.7506 0.1909 -0.0003 3.6621 -3.4476 1.1063 1.1162 -2.0518 2.2879 4.4840 -7.8968 11.3289 -2.9203 7.5208 17.6985 -2.2309 10.7770 -2.4347 -5.2306 -16.9380 -14.3302 0.0000 0.0000 18.8637 10.1640 14.1624 1.1892 0.0000 0.0000 -0.0000 0.0000 -0.0000 -0.0000 -4.8951 -3.5367 -3.5953 4.2739 12.6579 9.0864 -0.0000 -0.0000 -12.2582 -9.2202 -0.3429 -1.4437 -0.0000 0.0000 0.0000 -0.0000 0.0000 0.0000 0.6801 3.1722 -28.9488 6.2493 0.0000 0.0000 -4.9858 -2.8285 0.0207 0.8582 0.0000 0.0000 0.1258 -4.6771 15.0985 4.5937 0.0000 0.0000 -6.0610 23.8481 0.1339 12.1091 0.0000 0.0000
 11.7931 59.4160 37.9308 0.1478 0.6365 6.8170 -0.4079 0.9317 0.1002 -0.7529 0.1968 -0.0000 3.6687 -3.4580 1.1097 1.1149 -2.0469 2.2841 4.4748 -7.8865 11.3213 -2.8957 7.5125 17.7008 -2.2563 10.7657 -2.4696 -5.2268 -16.9618 -14.2468 0.0000 0.0000 18.7601 10.0931 14.1430 1.1761 0.0000 -0.0000 0.0000 -0.0000 -0.0000 -0.0000 -4.8968 -3.5395 -3.5826 4.2165 12.6653 9.0981 -0.0000 -0.0000 -12.2623 -9.3170 -0.3276 -1.4056 -0.0000 0.0000 0.0000 0.0000 -0.0000 0.0000 0.6849 3.1769 -28.9423 6.2581 0.0000 0.0000 -4.9875 -2.8292 0.0219 0.8588 0.0000 0.0000 0.1401 -4.6763 15.1396 4.5905 0.0000 0.0000 -6.0525 23.8584 0.1062 12.1250 0.0000 0.0000
 11.7950 59.4142 37.9308 0.1296 0.6339 6.8045 -0.4066 0.9307 0.1001 -0.7540 0.1990 0.0007 3.6738 -3.4649 1.1124 1.1136 -2.0434 2.2841 4.4712 -7.8770 11.3139 -2.8727 7.5025 17.7049 -2.2844 10.7574 -2.5155 -5.2332 -16.9979 -14.1498 0.0000 0.0000 18.6306 9.9928 14.1106 1.1593 0.0000 -0.0000 0.0000 0.0000 0.0000 -0.0000 -4.9001 -3.5399 -3.5710 4.1406 12.6700 9.1169 -0.0000 -0.0000 -12.2696 -9.4466 -0.3015 -1.3492 -0.0000 0.0000 -0.0000 -0.0000 0.0000 0.0000 0.7001 3.1828 -28.9367 6.2677 0.0000 0.0000 -4.9898 -2.8315 0.0278 0.8583 0.0000 0.0000 0.1698 -4.6748 15.1981 4.5812 0.0000 0.0000 -6.0381 23.8737 0.0658 12.1456 0.0000 0.0000
 11.7970 59.4124 37.9307 0.1113 0.6323 6.7885 -0.4073 0.9288 0.1005 -0.7548 0.2005 0.0003 3.6774 -3.4726 1.1172 1.1125 -2.0401 2.2855 4.4735 -7.8695 11.3087 -2.8507 7.4924 17.7111 -2.3162 10.7504 -2.5668 -5.2539 -17.0425 -14.0484 0.0000 0.0000 18.4803 9.8616 14.0597 1.1382 -0.0000 0.0000 -0.0000 -0.0000 -0.0000 0.0000 -4.9046 -3.5353 -3.5581 4.0427 12.6684 9.1435 -0.0000 -0.0000 -12.2821 -9.6112 -0.2675 -1.2723 -0.0000 0.0000 0.0000 -0.0000 0.0000 0.0000 0.7132 3.1888 -28.9275 6.2809 0.0000 0.0000 -4.9929 -2.8342 0.0340 0.8565 0.0000 0.0000 0.2009 -4.6749 15.2709 4.5713 0.0000 0.0000 -6.0204 23.8940 0.0150 12.1707 0.0000 0.0000
 11.7991 59.4103 37.9305 0.0913 0.6314 6.7686 -0.4082 0.9260 0.1006 -0.7560 0.2012 0.0004 3.6799 -3.4802 1.1246 1.1116 -2.0373 2.2873 4.4818 -7.8651 11.3067 -2.8302 7.4826 17.7190 -2.3502 10.7445 -2.6191 -5.2894 -17.0938 -13.9500 0.0000 0.0000 18.3139 9.6977 13.9870 1.1147 -0.0000 0.0000 -0.0000 0.0000 -0.0000 -0.0000 -4.9099 -3.5268 -3.5444 3.9207 12.6611 9.1787 -0.0000 -0.0000 -12.3000 -9.8087 -0.2270 -1.1756 -0.0000 -0.0000 -0.0000 0.0000 -0.0000 0.0000 0.7266 3.1946 -28.9162 6.2964 0.0000 0.0000 -4.9967 -2.8374 0.0422 0.8529 0.0000 0.0000 0.2362 -4.6762 15.3563 4.5588 0.0000 0.0000 -5.9995 23.9186 -0.0440 12.1994 0.0000 0.0000
 11.8011 59.4080 37.9302 0.0698 0.6315 6.7443 -0.4087 0.9223 0.1010 -0.7567 0.2009 0.0003 3.6799 -3.4874 1.1350 1.1107 -2.0355 2.2903 4.4966 -7.8632 11.3080 -2.8128 7.4726 17.7282 -2.3842 10.7406 -2.6696 -5.3424 -17.1503 -13.8625 0.0000 0.0000 18.1386 9.5025 13.8899 1.0890 0.0000 -0.0000 0.0000 0.0000 -0.0000 0.0000 -4.9162 -3.5135 -3.5309 3.7748 12.6468 9.2236 -0.0000 -0.0000 -12.3234 -10.0379 -0.1821 -1.0613 -0.0000 0.0000 0.0000 -0.0000 0.0000 0.0000 0.7400 3.2000 -28.9020 6.3144 0.0000 0.0000 -5.0013 -2.8408 0.0524 0.8477 0.0000 0.0000 0.2756 -4.6788 15.4530 4.5438 0.0000 0.0000 -5.9761 23.9467 -0.1097 12.2302 0.0000 0.0000
 11.8029 59.4055 37.9298 0.0471 0.6326 6.7151 -0.4087 0.9175 0.1017 -0.7569 0.1998 0.0003 3.6773 -3.4938 1.1489 1.1100 -2.0347 2.2945 4.5167 -7.8635 11.3124 -2.7990 7.4623 17.7382 -2.4163 10.7391 -2.7150 -5.4131 -17.2101 -13.7921 0.0000 0.0000 17.9612 9.2817 13.7684 1.0615 -0.0000 0.0000 -0.0000 -0.0000 0.0000 0.0000 -4.9234 -3.4958 -3.5184 3.6042 12.6251 9.2793 -0.0000 -0.0000 -12.3528 -10.2954 -0.1360 -0.9319 0.0000 -0.0000 -0.0000 -0.0000 0.0000 0.0000 0.7533 3.2045 -28.8851 6.3339 0.0000 0.0000 -5.0066 -2.8443 0.0651 0.8402 0.0000 0.0000 0.3185 -4.6828 15.5570 4.5263 0.0000 0.0000 -5.9518 23.9769 -0.1781 12.2623 0.0000 0.0000
 11.8044 59.4030 37.9293 0.0244 0.6347 6.6811 -0.4086 0.9118 0.1029 -0.7565 0.1975 -0.0001 3.6721 -3.4988 1.1661 1.1092 -2.0351 2.2999 4.5402 -7.8659 11.3202 -2.7876 7.4519 17.7475 -2.4442 10.7394 -2.7529 -5.5001 -17.2708 -13.7432 0.0000 0.0000 17.7885 9.0400 13.6240 1.0330 -0.0000 0.0000 0.0000 -0.0000 -0.0000 0.0000 -4.9312 -3.4742 -3.5068 3.4094 12.5961 9.3453 -0.0000 -0.0000 -12.3871 -10.5772 -0.0918 -0.7920 0.0000 0.0000 0.0000 0.0000 0.0000 0.0000 0.7652 3.2079 -28.8653 6.3548 0.0000 0.0000 -5.0127 -2.8473 0.0801 0.8318 0.0000 0.0000 0.3631 -4.6881 15.6649 4.5073 0.0000 0.0000 -5.9283 24.0076 -0.2457 12.2936 0.0000 0.0000
 11.8054 59.4004 37.9286 0.0021 0.6379 6.6419 -0.4084 0.9055 0.1046 -0.7559 0.1944 -0.0002 3.6645 -3.5024 1.1867 1.1085 -2.0369 2.3060 4.5660 -7.8695 11.3307 -2.7796 7.4421 17.7560 -2.4670 10.7410 -2.7811 -5.6001 -17.3297 -13.7185 0.0000 0.0000 17.6264 8.7851 13.4598 1.0041 -0.0000 0.0000 -0.0000 -0.0000 -0.0000 -0.0000 -4.9399 -3.4495 -3.4970 3.1926 12.5607 9.4221 -0.0000 -0.0000 -12.4255 -10.8796 -0.0537 -0.6467 -0.0000 -0.0000 -0.0000 -0.0000 0.0000 0.0000 0.7758 3.2099 -28.8424 6.3762 0.0000 0.0000 -5.0194 -2.8497 0.0973 0.8219 0.0000 0.0000 0.4087 -4.6945 15.7718 4.4872 0.0000 0.0000 -5.9074 24.0369 -0.3081 12.3226 0.0000 0.0000
